<svg width="360" height="280" viewBox="0 0 360 280" fill="none" xmlns="http://www.w3.org/2000/svg">
<path fill-rule="evenodd" clip-rule="evenodd" d="M194 87.3373C306.105 87.3373 396.984 173.595 396.984 280H345.139C345.139 200.773 277.471 136.546 194 136.546C110.528 136.546 42.8614 200.773 42.8614 280H-8.98395C-8.98394 173.595 81.8951 87.3373 194 87.3373Z" fill="#BFB4B4"/>
<path fill-rule="evenodd" clip-rule="evenodd" d="M194 0C356.924 1.3519e-05 489 125.36 489 280H437.155C437.155 152.538 328.291 49.2091 194 49.2091C59.7094 49.2091 -49.1546 152.538 -49.1547 280H-101C-101 125.36 31.076 -1.3519e-05 194 0Z" fill="#BFB4B4"/>
<path fill-rule="evenodd" clip-rule="evenodd" d="M194 170.705C257.596 170.705 309.15 219.638 309.15 280H257.305C257.305 246.815 228.962 219.914 194 219.914C159.038 219.914 130.695 246.815 130.695 280H78.8497C78.8497 219.638 130.404 170.705 194 170.705Z" fill="#BFB4B4"/>
</svg>
